<svg id="Layer_1" data-name="Layer 1" xmlns="http://www.w3.org/2000/svg" xmlns:xlink="http://www.w3.org/1999/xlink" viewBox="0 0 24 24"><defs><style>.cls-1{fill:url(#linear-gradient);}.cls-2{fill:url(#linear-gradient-2);}</style><linearGradient id="linear-gradient" x1="6" y1="12.96" x2="19" y2="12.96" gradientUnits="userSpaceOnUse"><stop offset="0" stop-color="#dbb13b"/><stop offset="1" stop-color="#0a0e29"/></linearGradient><linearGradient id="linear-gradient-2" x1="6" y1="22.39" x2="18" y2="1.61" gradientUnits="userSpaceOnUse"><stop offset="0.15" stop-color="#2d325a"/><stop offset="0.5" stop-color="#dbb13b"/><stop offset="0.85" stop-color="#0a0e29"/></linearGradient></defs><title>how_kembali</title><path class="cls-1" d="M7.83,8.83,6,7v6h6l-1.79-1.79c4.38-3.12,10.68,1.8,5,7.71C24,13.31,15.68,2.76,7.83,8.83Z"/><path class="cls-2" d="M12,0A12,12,0,1,0,24,12,12,12,0,0,0,12,0Zm0,22A10,10,0,1,1,22,12,10,10,0,0,1,12,22Z"/></svg>