<svg id="Layer_1" data-name="Layer 1" xmlns="http://www.w3.org/2000/svg" viewBox="0 0 429.08 212.19"><defs><style>.cls-1{fill:#2d325a;}.cls-2,.cls-7{font-size:21px;font-family:Assistant-Bold, Assistant;font-weight:700;}.cls-2,.cls-3{fill:#0a0e29;}.cls-4{fill:#183f9c;}.cls-5{fill:#2dc7ff;}.cls-6,.cls-7{fill:#dbb13b;}.cls-8{letter-spacing:-0.03em;}.cls-9{letter-spacing:0em;}.cls-10{letter-spacing:-0.02em;}.cls-11{letter-spacing:0em;}</style></defs><title>notfound</title><rect class="cls-1" x="0.08" y="23.91" width="46.2" height="15" rx="7.5" ry="7.5"/><text class="cls-2" transform="translate(0 18.38)">&lt;<tspan class="cls-1" x="10.98" y="0">404</tspan><tspan x="43.93" y="0">&gt;</tspan></text><rect class="cls-3" x="50.08" y="23.91" width="67" height="15" rx="7.5" ry="7.5"/><rect class="cls-4" x="131.08" y="23.91" width="70" height="15" rx="7.5" ry="7.5"/><rect class="cls-4" x="0.08" y="44.91" width="74" height="15" rx="7.5" ry="7.5"/><rect class="cls-1" x="80.08" y="44.91" width="37" height="15" rx="7.5" ry="7.5"/><rect class="cls-5" x="121.08" y="44.91" width="100" height="15" rx="7.5" ry="7.5"/><rect class="cls-6" x="30.08" y="65.91" width="62" height="15" rx="7.5" ry="7.5"/><rect class="cls-3" x="97.08" y="65.91" width="101" height="15" rx="7.5" ry="7.5"/><rect class="cls-5" x="0.08" y="86.91" width="80" height="15" rx="7.5" ry="7.5"/><rect class="cls-1" x="86.08" y="86.91" width="50" height="15" rx="7.5" ry="7.5"/><rect class="cls-4" x="141.08" y="86.91" width="50" height="15" rx="7.5" ry="7.5"/><rect class="cls-6" x="0.08" y="107.91" width="27" height="15" rx="7.5" ry="7.5"/><rect class="cls-3" x="31.08" y="107.91" width="70" height="15" rx="7.5" ry="7.5"/><rect class="cls-1" x="30.08" y="128.91" width="67" height="15" rx="7.5" ry="7.5"/><rect class="cls-3" x="102.08" y="128.91" width="45" height="15" rx="7.5" ry="7.5"/><rect class="cls-6" x="151.08" y="128.91" width="20" height="15" rx="7.5" ry="7.5"/><rect class="cls-4" x="30.08" y="149.91" width="77" height="15" rx="7.5" ry="7.5"/><rect class="cls-1" x="110.08" y="149.91" width="37" height="15" rx="7.5" ry="7.5"/><rect class="cls-5" x="151.08" y="149.91" width="47" height="15" rx="7.5" ry="7.5"/><text class="cls-7" transform="translate(0 185.38)">n<tspan class="cls-8" x="11.93" y="0">o</tspan><tspan class="cls-9" x="23" y="0">t</tspan><tspan class="cls-10" x="30.89" y="0">F</tspan><tspan class="cls-11" x="41.43" y="0">ound</tspan><tspan class="cls-3" x="88.81" y="0">();</tspan></text><text class="cls-2" transform="translate(0 206.38)">&lt;<tspan class="cls-1" x="10.98" y="0">/404</tspan><tspan x="51.09" y="0">&gt;</tspan></text><rect class="cls-3" x="208.08" y="149.91" width="74" height="15" rx="7.5" ry="7.5"/><rect class="cls-1" x="288.08" y="149.91" width="37" height="15" rx="7.5" ry="7.5"/><rect class="cls-6" x="329.08" y="149.91" width="100" height="15" rx="7.5" ry="7.5"/><rect class="cls-6" x="228.08" y="128.91" width="62" height="15" rx="7.5" ry="7.5"/><rect class="cls-3" x="295.08" y="128.91" width="101" height="15" rx="7.5" ry="7.5"/><rect class="cls-5" x="198.08" y="107.91" width="80" height="15" rx="7.5" ry="7.5"/><rect class="cls-1" x="284.08" y="107.91" width="50" height="15" rx="7.5" ry="7.5"/><rect class="cls-4" x="339.08" y="107.91" width="50" height="15" rx="7.5" ry="7.5"/><rect class="cls-4" x="229.08" y="86.91" width="70" height="15" rx="7.5" ry="7.5"/><rect class="cls-1" x="228.08" y="65.91" width="67" height="15" rx="7.5" ry="7.5"/><rect class="cls-5" x="300.08" y="65.91" width="45" height="15" rx="7.5" ry="7.5"/><rect class="cls-6" x="349.08" y="65.91" width="20" height="15" rx="7.5" ry="7.5"/><rect class="cls-6" x="238.08" y="44.91" width="77" height="15" rx="7.5" ry="7.5"/><rect class="cls-1" x="318.08" y="44.91" width="37" height="15" rx="7.5" ry="7.5"/><rect class="cls-3" x="359.08" y="44.91" width="47" height="15" rx="7.5" ry="7.5"/></svg>