<svg id="Layer_1" data-name="Layer 1" xmlns="http://www.w3.org/2000/svg" xmlns:xlink="http://www.w3.org/1999/xlink" viewBox="0 0 24 16"><defs><style>.cls-1{fill:url(#linear-gradient);}.cls-2{font-size:8px;fill:#2d325a;font-family:MavenProRegular, Maven Pro;}</style><linearGradient id="linear-gradient" x1="12" y1="20" x2="12" y2="4" gradientUnits="userSpaceOnUse"><stop offset="0.15" stop-color="#0a0e29"/><stop offset="0.52" stop-color="#dbb13b"/><stop offset="0.85" stop-color="#2d325a"/></linearGradient></defs><title>semester4</title><path class="cls-1" d="M22,17V5.2A1.2,1.2,0,0,0,20.8,4H3.2A1.2,1.2,0,0,0,2,5.2V17ZM4,6H20v9H4ZM24,18v.8A1.2,1.2,0,0,1,22.8,20H1.2A1.2,1.2,0,0,1,0,18.8V18H10a.5.5,0,0,0,.5.5h3A.5.5,0,0,0,14,18Z" transform="translate(0 -4)"/><text class="cls-2" transform="translate(9.64 8.88)">4</text></svg>