<svg id="Layer_1" data-name="Layer 1" xmlns="http://www.w3.org/2000/svg" xmlns:xlink="http://www.w3.org/1999/xlink" viewBox="0 0 122 122"><defs><style>.cls-1{fill:url(#linear-gradient);}.cls-2{fill:url(#linear-gradient-2);}.cls-3{fill:url(#linear-gradient-3);}.cls-4{fill:url(#linear-gradient-4);}.cls-5{fill:url(#linear-gradient-5);}.cls-6{fill:url(#linear-gradient-6);}.cls-7{fill:url(#linear-gradient-7);}.cls-8{fill:url(#linear-gradient-8);}</style><linearGradient id="linear-gradient" x1="59.48" y1="129.3" x2="84.36" y2="86.9" gradientUnits="userSpaceOnUse"><stop offset="0" stop-color="#183f9c"/><stop offset="1" stop-color="#2d325a"/></linearGradient><linearGradient id="linear-gradient-2" x1="19.86" y1="106.05" x2="44.75" y2="63.65" xlink:href="#linear-gradient"/><linearGradient id="linear-gradient-3" x1="130.56" y1="207.78" x2="155.44" y2="165.39" xlink:href="#linear-gradient"/><linearGradient id="linear-gradient-4" x1="13.2" y1="102.14" x2="38.09" y2="59.74" xlink:href="#linear-gradient"/><linearGradient id="linear-gradient-5" x1="66.14" y1="133.21" x2="91.02" y2="90.81" xlink:href="#linear-gradient"/><linearGradient id="linear-gradient-6" x1="6.55" y1="98.23" x2="31.43" y2="55.84" xlink:href="#linear-gradient"/><linearGradient id="linear-gradient-7" x1="72.79" y1="137.12" x2="97.68" y2="94.72" xlink:href="#linear-gradient"/><linearGradient id="linear-gradient-8" x1="139.28" y1="148.78" x2="165.14" y2="119.65" gradientUnits="userSpaceOnUse"><stop offset="0" stop-color="#2dc7ff"/><stop offset="0.78" stop-color="#0a0e29"/></linearGradient></defs><title>header</title><rect class="cls-1" x="91.5" y="61" width="10.17" height="10.17"/><rect class="cls-2" x="20.33" y="91.5" width="10.17" height="10.17"/><path class="cls-3" d="M205.92,200.83V129.67H190.67V119.5H180.5V104.25H150V99.17h15.25V89H144.92v15.25H119.5V119.5H109.33v10.17H94.08v71.16H89V211H211V200.83Zm-45.75,5.09H139.83V180.5L150,175.42l10.17,5.08Zm35.58-5.09H170.33V175.42L150,163.54l-20.33,11.88v25.41H104.25v-61H119.5V129.67h10.17V114.42h40.66v15.25H180.5v10.16h15.25Z" transform="translate(-89 -89)"/><rect class="cls-4" x="20.33" y="76.25" width="10.17" height="10.17"/><rect class="cls-5" x="91.5" y="76.25" width="10.17" height="10.17"/><rect class="cls-6" x="20.33" y="61" width="10.17" height="10.17"/><rect class="cls-7" x="91.5" y="91.5" width="10.17" height="10.17"/><path class="cls-8" d="M152.52,139.23l4.39-6.71-.76-.67L150,137a3.33,3.33,0,1,0,2.49,2.22ZM146,121.49V117h6.67v4.49A18.46,18.46,0,0,0,146,121.49Zm14.75,3.44,2.35-2.34,2.35,2.35-2.2,2.2A21,21,0,0,0,160.75,124.93ZM129.33,132h13.34v3.33H129.33ZM126,138.67h13.33V142H126Zm5,6.66h11.67v3.34H131Zm35-5A16.63,16.63,0,0,1,137.48,152H143a13.1,13.1,0,0,0,6.38,1.67,13.34,13.34,0,1,0,0-26.67,13,13,0,0,0-6.38,1.67h-5.47A16.63,16.63,0,0,1,166,140.33Z" transform="translate(-89 -89)"/></svg>