<svg id="Layer_1" data-name="Layer 1" xmlns="http://www.w3.org/2000/svg" xmlns:xlink="http://www.w3.org/1999/xlink" viewBox="0 0 20 24"><defs><style>.cls-1{fill:url(#linear-gradient);}.cls-2{fill:url(#linear-gradient-2);}.cls-3{fill:url(#linear-gradient-3);}.cls-4{fill:url(#linear-gradient-4);}.cls-5{fill:url(#linear-gradient-5);}.cls-6{fill:url(#linear-gradient-6);}.cls-7{fill:url(#linear-gradient-7);}.cls-8{fill:url(#linear-gradient-8);}.cls-9{fill:url(#linear-gradient-9);}.cls-10{fill:url(#linear-gradient-10);}.cls-11{fill:url(#linear-gradient-11);}.cls-12{fill:url(#linear-gradient-12);}.cls-13{fill:url(#linear-gradient-13);}.cls-14{fill:url(#linear-gradient-14);}</style><linearGradient id="linear-gradient" x1="9.6" y1="2.62" x2="8.56" y2="0.82" gradientUnits="userSpaceOnUse"><stop offset="0" stop-color="#183f9c"/><stop offset="1" stop-color="#2dc7ff"/></linearGradient><linearGradient id="linear-gradient-2" x1="14.83" y1="12.77" x2="9.75" y2="3.96" xlink:href="#linear-gradient"/><linearGradient id="linear-gradient-3" x1="18.87" y1="7.6" x2="17.76" y2="5.68" xlink:href="#linear-gradient"/><linearGradient id="linear-gradient-4" x1="12.61" y1="2.07" x2="11.39" y2="-0.03" xlink:href="#linear-gradient"/><linearGradient id="linear-gradient-5" x1="12.56" y1="15.28" x2="11.46" y2="13.39" xlink:href="#linear-gradient"/><linearGradient id="linear-gradient-6" x1="17.62" y1="4.33" x2="16.86" y2="3.01" xlink:href="#linear-gradient"/><linearGradient id="linear-gradient-7" x1="15.48" y1="2.68" x2="14.37" y2="0.76" xlink:href="#linear-gradient"/><linearGradient id="linear-gradient-8" x1="18.4" y1="10.55" x2="17.21" y2="8.49" xlink:href="#linear-gradient"/><linearGradient id="linear-gradient-9" x1="12.41" y1="16.04" x2="11.63" y2="14.68" xlink:href="#linear-gradient"/><linearGradient id="linear-gradient-10" x1="6.25" y1="7.57" x2="5.18" y2="5.71" xlink:href="#linear-gradient"/><linearGradient id="linear-gradient-11" x1="6.59" y1="10.18" x2="5.84" y2="8.87" xlink:href="#linear-gradient"/><linearGradient id="linear-gradient-12" x1="7.37" y1="4.72" x2="6.16" y2="2.63" xlink:href="#linear-gradient"/><linearGradient id="linear-gradient-13" x1="2.77" y1="22.82" x2="8.45" y2="12.99" gradientUnits="userSpaceOnUse"><stop offset="0.2" stop-color="#2dc7ff"/><stop offset="0.58" stop-color="#0a0e29"/><stop offset="1" stop-color="#2d325a"/></linearGradient><linearGradient id="linear-gradient-14" x1="21.23" y1="22.82" x2="15.55" y2="12.99" xlink:href="#linear-gradient-13"/></defs><title>how_sumbang</title><path class="cls-1" d="M10.12,2.32,9.23.53,8,1.12l.88,1.79A5.35,5.35,0,0,1,10.12,2.32Z" transform="translate(-2)"/><path class="cls-2" d="M13.86,13.33c0-2.67,2.14-3.77,2.14-6.15a3.83,3.83,0,0,0-4-3.85A3.83,3.83,0,0,0,8,7.18c0,2.38,2.14,3.52,2.14,6.15Z" transform="translate(-2)"/><path class="cls-3" d="M19.33,6H17.21a5,5,0,0,1,.12,1.33h2Z" transform="translate(-2)"/><path class="cls-4" d="M12.67,2V0H11.33V2A6,6,0,0,1,12.67,2Z" transform="translate(-2)"/><path class="cls-5" d="M13.53,14h-3a.34.34,0,0,0,0,.67h3a.34.34,0,0,0,0-.67Z" transform="translate(-2)"/><path class="cls-6" d="M18.46,3.63l-.77-1.09L16,3.72a5,5,0,0,1,.76,1.09Z" transform="translate(-2)"/><path class="cls-7" d="M16,1.12,14.77.53l-.89,1.79a5.15,5.15,0,0,1,1.2.59Z" transform="translate(-2)"/><path class="cls-8" d="M16.68,9.76l1.73.78L19,9.33l-1.8-.82A6.73,6.73,0,0,1,16.68,9.76Z" transform="translate(-2)"/><path class="cls-9" d="M10.5,15.33l.79.52a.61.61,0,0,0,.41.15h.6a.58.58,0,0,0,.41-.15l.79-.52Z" transform="translate(-2)"/><path class="cls-10" d="M6.67,7.33A5.93,5.93,0,0,1,6.79,6H4.67V7.33Z" transform="translate(-2)"/><path class="cls-11" d="M6.84,8.51,5,9.33l.55,1.21,1.73-.78A6.73,6.73,0,0,1,6.84,8.51Z" transform="translate(-2)"/><path class="cls-12" d="M8,3.71,6.32,2.54,5.54,3.63,7.21,4.81A4.81,4.81,0,0,1,8,3.71Z" transform="translate(-2)"/><path class="cls-13" d="M7.48,14.54c-1.08-1.12-2.56.19-1.7,1.22.47.56,1.63,1.8,1.9,2.17a.38.38,0,0,1-.62.45c-.57-.6-1.91-2.09-2.37-2.62A2,2,0,0,1,4,14.38V11.16A1,1,0,0,0,3,10a1,1,0,0,0-1,1.16v4.09a3.53,3.53,0,0,0,.57,2.09A12.44,12.44,0,0,1,4.82,24h5a27.63,27.63,0,0,0,.76-2.94c.41-2.38-.12-3.47-1.11-4.49S7.94,15,7.48,14.54Z" transform="translate(-2)"/><path class="cls-14" d="M21,10a1,1,0,0,0-1,1.16v3.22a2,2,0,0,1-.69,1.38c-.46.53-1.8,2-2.37,2.62a.38.38,0,0,1-.62-.45c.27-.37,1.43-1.61,1.9-2.17.86-1-.61-2.34-1.7-1.22-.46.48-1,1-2,2S13,18.68,13.42,21.06A27.63,27.63,0,0,0,14.18,24h5c0-2.85,1.45-5.22,2.24-6.66A3.48,3.48,0,0,0,22,15.25V11.16A1,1,0,0,0,21,10Z" transform="translate(-2)"/></svg>