<svg id="Layer_1" data-name="Layer 1" xmlns="http://www.w3.org/2000/svg" viewBox="0 0 429 204.97"><defs><style>.cls-1{fill:#2d325a;}.cls-2{fill:#0a0e29;}.cls-3{fill:#183f9c;}.cls-4{fill:#2dc7ff;}.cls-5{fill:#dbb13b;}</style></defs><title>notfound</title><rect class="cls-1" y="19.14" width="46.2" height="15" rx="7.5" ry="7.5"/><path class="cls-2" d="M24.64,30.51v-2l9.55-3.7v2.38l-3.8,1.28-2.83,1v.08l2.83,1,3.8,1.28v2.37Z" transform="translate(-24 -22.86)"/><path class="cls-1" d="M45.39,33.19h-1.6v3.28H41.12V33.19H35.31v-2l5-8.11h3.46V31h1.6ZM41.12,31V28.55c0-.59,0-1.56.11-2.92h-.09c-.14.3-.44.9-.9,1.81l-.19.38-2,3.19Z" transform="translate(-24 -22.86)"/><path class="cls-1" d="M48.9,35.91a5.11,5.11,0,0,1-1.63-2.38,11,11,0,0,1-.58-3.8A8.72,8.72,0,0,1,48,24.64a4.19,4.19,0,0,1,6.86,0,8.64,8.64,0,0,1,1.27,5.09,11.21,11.21,0,0,1-.58,3.8,5.18,5.18,0,0,1-1.63,2.38,4,4,0,0,1-2.48.81A4,4,0,0,1,48.9,35.91Zm3.94-2.5a9.15,9.15,0,0,0,.53-3.68,8.67,8.67,0,0,0-.53-3.6,1.54,1.54,0,0,0-2.91,0,8.91,8.91,0,0,0-.51,3.61,9.19,9.19,0,0,0,.52,3.68,1.51,1.51,0,0,0,2.9,0Z" transform="translate(-24 -22.86)"/><path class="cls-1" d="M67.35,33.19H65.76v3.28H63.09V33.19H57.27v-2l5-8.11h3.47V31h1.59ZM63.09,31V28.55c0-.59,0-1.56.1-2.92h-.08c-.14.3-.44.9-.9,1.81l-.19.38L60,31Z" transform="translate(-24 -22.86)"/><path class="cls-2" d="M68.57,31.81l3.82-1.28,2.84-1v-.08l-2.84-1-3.82-1.28V24.79l9.56,3.7v2l-9.56,3.67Z" transform="translate(-24 -22.86)"/><rect class="cls-2" x="50" y="19.14" width="67" height="15" rx="7.5" ry="7.5"/><rect class="cls-3" x="131" y="19.14" width="70" height="15" rx="7.5" ry="7.5"/><rect class="cls-3" y="40.14" width="74" height="15" rx="7.5" ry="7.5"/><rect class="cls-1" x="80" y="40.14" width="37" height="15" rx="7.5" ry="7.5"/><rect class="cls-4" x="121" y="40.14" width="100" height="15" rx="7.5" ry="7.5"/><rect class="cls-5" x="30" y="61.14" width="62" height="15" rx="7.5" ry="7.5"/><rect class="cls-2" x="97" y="61.14" width="101" height="15" rx="7.5" ry="7.5"/><rect class="cls-4" y="82.14" width="80" height="15" rx="7.5" ry="7.5"/><rect class="cls-1" x="86" y="82.14" width="50" height="15" rx="7.5" ry="7.5"/><rect class="cls-3" x="141" y="82.14" width="50" height="15" rx="7.5" ry="7.5"/><rect class="cls-5" y="103.14" width="27" height="15" rx="7.5" ry="7.5"/><rect class="cls-2" x="31" y="103.14" width="70" height="15" rx="7.5" ry="7.5"/><rect class="cls-1" x="30" y="124.14" width="67" height="15" rx="7.5" ry="7.5"/><rect class="cls-2" x="102" y="124.14" width="45" height="15" rx="7.5" ry="7.5"/><rect class="cls-5" x="151" y="124.14" width="20" height="15" rx="7.5" ry="7.5"/><rect class="cls-3" x="30" y="145.14" width="77" height="15" rx="7.5" ry="7.5"/><rect class="cls-1" x="110" y="145.14" width="37" height="15" rx="7.5" ry="7.5"/><rect class="cls-4" x="151" y="145.14" width="47" height="15" rx="7.5" ry="7.5"/><path class="cls-5" d="M25.35,193.07h2.33l.21,1.35H28a6.92,6.92,0,0,1,1.56-1.17,3.86,3.86,0,0,1,1.8-.43,2.79,2.79,0,0,1,2.42,1.08,5.2,5.2,0,0,1,.79,3.1v6.47H31.67v-6.11a3,3,0,0,0-.32-1.62,1.2,1.2,0,0,0-1.06-.46,2,2,0,0,0-1,.25,5.45,5.45,0,0,0-1.05.84v7.1H25.35Z" transform="translate(-24 -22.86)"/><path class="cls-5" d="M39.18,203.07a4.85,4.85,0,0,1-1.84-1.89,6.48,6.48,0,0,1,0-5.82,5,5,0,0,1,6.81-1.89,4.9,4.9,0,0,1,1.85,1.9,6,6,0,0,1,.69,2.91,5.87,5.87,0,0,1-.69,2.9,4.81,4.81,0,0,1-1.85,1.89,5.08,5.08,0,0,1-5,0Zm4-2.51a4,4,0,0,0,.55-2.28A4.13,4.13,0,0,0,43.2,196a1.82,1.82,0,0,0-3.07,0,4.22,4.22,0,0,0-.54,2.29,4.13,4.13,0,0,0,.54,2.28,1.83,1.83,0,0,0,3.07,0Z" transform="translate(-24 -22.86)"/><path class="cls-5" d="M49.59,202.68a4.5,4.5,0,0,1-.84-2.91v-4.43H47.3V193.2l1.59-.13.34-2.77H51.6v2.77h2.54v2.27H51.6v4.41c0,1.14.46,1.7,1.39,1.7a3.14,3.14,0,0,0,1-.21l.46,2.1a6.9,6.9,0,0,1-2.25.38A3.17,3.17,0,0,1,49.59,202.68Z" transform="translate(-24 -22.86)"/><path class="cls-5" d="M56.47,189.76H65v2.41H59.35v3.42h4.83V198H59.35v5.46H56.47Z" transform="translate(-24 -22.86)"/><path class="cls-5" d="M68.69,203.07a4.72,4.72,0,0,1-1.84-1.89,6.4,6.4,0,0,1,0-5.82,4.85,4.85,0,0,1,1.84-1.89,5.06,5.06,0,0,1,5,0,4.83,4.83,0,0,1,1.85,1.9,6,6,0,0,1,.69,2.91,5.87,5.87,0,0,1-.69,2.9,4.74,4.74,0,0,1-1.85,1.89,5.06,5.06,0,0,1-5,0Zm4-2.51a4.13,4.13,0,0,0,.54-2.28,4.22,4.22,0,0,0-.54-2.29,1.75,1.75,0,0,0-1.54-.84,1.72,1.72,0,0,0-1.54.84,4.22,4.22,0,0,0-.54,2.29,4.13,4.13,0,0,0,.54,2.28,1.73,1.73,0,0,0,1.54.83A1.76,1.76,0,0,0,72.71,200.56Z" transform="translate(-24 -22.86)"/><path class="cls-5" d="M79.08,202.64a5.23,5.23,0,0,1-.79-3.1v-6.47h2.86v6.12a2.79,2.79,0,0,0,.34,1.6,1.2,1.2,0,0,0,1.07.47,1.86,1.86,0,0,0,1-.28,4.68,4.68,0,0,0,1-.95v-7h2.86v10.4H85.08L84.87,202h-.09a5.45,5.45,0,0,1-1.49,1.28,3.59,3.59,0,0,1-1.78.44A2.81,2.81,0,0,1,79.08,202.64Z" transform="translate(-24 -22.86)"/><path class="cls-5" d="M90.26,193.07h2.33l.21,1.35h.09a6.92,6.92,0,0,1,1.56-1.17,3.86,3.86,0,0,1,1.8-.43,2.79,2.79,0,0,1,2.42,1.08,5.2,5.2,0,0,1,.79,3.1v6.47H96.58v-6.11a2.94,2.94,0,0,0-.32-1.62,1.2,1.2,0,0,0-1.06-.46,2,2,0,0,0-1,.25,5.78,5.78,0,0,0-1,.84v7.1H90.26Z" transform="translate(-24 -22.86)"/><path class="cls-5" d="M102.77,202.27a6.21,6.21,0,0,1-1.15-4,6.48,6.48,0,0,1,.61-2.87,4.8,4.8,0,0,1,1.61-1.92,3.76,3.76,0,0,1,2.11-.67,3.23,3.23,0,0,1,1.41.28,4.5,4.5,0,0,1,1.19.84l-.1-1.62v-3.61h2.88v14.76H109l-.21-1.07h-.06a5,5,0,0,1-1.33.95,3.32,3.32,0,0,1-1.5.37A3.72,3.72,0,0,1,102.77,202.27Zm4.82-1.14a3,3,0,0,0,.86-.77v-4.45a2.65,2.65,0,0,0-1.85-.74,1.76,1.76,0,0,0-1.45.8,3.79,3.79,0,0,0-.59,2.27,4.22,4.22,0,0,0,.53,2.34,1.69,1.69,0,0,0,1.51.79A2.07,2.07,0,0,0,107.59,201.13Z" transform="translate(-24 -22.86)"/><path class="cls-2" d="M115,202.65a18.35,18.35,0,0,1,0-10,20,20,0,0,1,2.07-4.58l1.78.76a16.48,16.48,0,0,0-1.69,4.24,19.51,19.51,0,0,0,0,9.2,16.34,16.34,0,0,0,1.69,4.24l-1.78.76A20,20,0,0,1,115,202.65Z" transform="translate(-24 -22.86)"/><path class="cls-2" d="M120.82,206.47a16.34,16.34,0,0,0,1.69-4.24,19.51,19.51,0,0,0,0-9.2,16.48,16.48,0,0,0-1.69-4.24l1.78-.76a20,20,0,0,1,2.07,4.58,18.1,18.1,0,0,1,0,10,20,20,0,0,1-2.07,4.58Z" transform="translate(-24 -22.86)"/><path class="cls-2" d="M131.58,200.76a3.43,3.43,0,0,1,.54,2.06,4.67,4.67,0,0,1-.94,2.9,5.17,5.17,0,0,1-2.68,1.76l-.58-1.55a4,4,0,0,0,1.68-1.06,2.27,2.27,0,0,0,.58-1.51H130a1.82,1.82,0,0,1-1.25-.44,1.49,1.49,0,0,1-.52-1.21,1.54,1.54,0,0,1,.53-1.21,1.84,1.84,0,0,1,1.3-.47A1.75,1.75,0,0,1,131.58,200.76Zm-2.85-4.49a2,2,0,0,1,0-2.65,1.69,1.69,0,0,1,1.27-.52,1.65,1.65,0,0,1,1.25.52,2,2,0,0,1,0,2.65,1.65,1.65,0,0,1-1.25.52A1.69,1.69,0,0,1,128.73,196.27Z" transform="translate(-24 -22.86)"/><path class="cls-2" d="M24.64,218.51v-2l9.55-3.7v2.38l-3.8,1.28-2.83,1v.08l2.83,1,3.8,1.28v2.37Z" transform="translate(-24 -22.86)"/><path class="cls-1" d="M39.63,209.56h1.89l-4.45,18.27H35.18Z" transform="translate(-24 -22.86)"/><path class="cls-1" d="M52.55,221.19H51v3.28H48.28v-3.28H42.47v-2l5-8.11H51V219h1.6ZM48.28,219v-2.46c0-.59,0-1.56.11-2.92H48.3c-.14.3-.44.9-.9,1.81l-.19.38-2,3.19Z" transform="translate(-24 -22.86)"/><path class="cls-1" d="M56.06,223.91a5.11,5.11,0,0,1-1.63-2.38,11,11,0,0,1-.58-3.8,8.72,8.72,0,0,1,1.26-5.09,4.2,4.2,0,0,1,6.87,0,8.72,8.72,0,0,1,1.26,5.09,11.21,11.21,0,0,1-.58,3.8A5.18,5.18,0,0,1,61,223.91a4,4,0,0,1-2.48.81A4,4,0,0,1,56.06,223.91Zm3.94-2.5a9.15,9.15,0,0,0,.53-3.68,8.67,8.67,0,0,0-.53-3.6,1.54,1.54,0,0,0-2.91,0,8.91,8.91,0,0,0-.51,3.61,9.19,9.19,0,0,0,.52,3.68,1.51,1.51,0,0,0,2.9,0Z" transform="translate(-24 -22.86)"/><path class="cls-1" d="M74.51,221.19H72.92v3.28H70.25v-3.28H64.43v-2l5-8.11h3.47V219h1.59ZM70.25,219v-2.46c0-.59,0-1.56.1-2.92h-.08c-.14.3-.44.9-.9,1.81l-.19.38-2,3.19Z" transform="translate(-24 -22.86)"/><path class="cls-2" d="M75.73,219.81l3.82-1.28,2.84-1v-.08l-2.84-1-3.82-1.28v-2.38l9.56,3.7v2l-9.56,3.67Z" transform="translate(-24 -22.86)"/><rect class="cls-2" x="208" y="145.14" width="74" height="15" rx="7.5" ry="7.5"/><rect class="cls-1" x="288" y="145.14" width="37" height="15" rx="7.5" ry="7.5"/><rect class="cls-5" x="329" y="145.14" width="100" height="15" rx="7.5" ry="7.5"/><rect class="cls-5" x="228" y="124.14" width="62" height="15" rx="7.5" ry="7.5"/><rect class="cls-2" x="295" y="124.14" width="101" height="15" rx="7.5" ry="7.5"/><rect class="cls-4" x="198" y="103.14" width="80" height="15" rx="7.5" ry="7.5"/><rect class="cls-1" x="284" y="103.14" width="50" height="15" rx="7.5" ry="7.5"/><rect class="cls-3" x="339" y="103.14" width="50" height="15" rx="7.5" ry="7.5"/><rect class="cls-3" x="229" y="82.14" width="70" height="15" rx="7.5" ry="7.5"/><rect class="cls-1" x="228" y="61.14" width="67" height="15" rx="7.5" ry="7.5"/><rect class="cls-4" x="300" y="61.14" width="45" height="15" rx="7.5" ry="7.5"/><rect class="cls-5" x="349" y="61.14" width="20" height="15" rx="7.5" ry="7.5"/><rect class="cls-5" x="238" y="40.14" width="77" height="15" rx="7.5" ry="7.5"/><rect class="cls-1" x="318" y="40.14" width="37" height="15" rx="7.5" ry="7.5"/><rect class="cls-2" x="359" y="40.14" width="47" height="15" rx="7.5" ry="7.5"/></svg>