<?xml version="1.0" encoding="utf-8"?>
<!-- Generator: Adobe Illustrator 22.0.0, SVG Export Plug-In . SVG Version: 6.00 Build 0)  -->
<svg version="1.1" id="Layer_1" xmlns="http://www.w3.org/2000/svg" xmlns:xlink="http://www.w3.org/1999/xlink" x="0px" y="0px"
	 viewBox="0 0 250 250" style="enable-background:new 0 0 250 250;" xml:space="preserve">
<style type="text/css">
	.st0{fill:#2D325A;}
	.st1{fill:#0A0E29;}
	.st2{font-family:'Assistant-Bold';}
	.st3{font-size:21px;}
	.st4{fill:#183F9C;}
	.st5{fill:#2DC7FF;}
	.st6{fill:#DBB13B;}
</style>
<g>
	<path class="st0" d="M62.7,57H31.5c-4.1,0-7.5-3.4-7.5-7.5v0c0-4.1,3.4-7.5,7.5-7.5h31.2c4.1,0,7.5,3.4,7.5,7.5v0
		C70.2,53.6,66.8,57,62.7,57z"/>
</g>
<text transform="matrix(1 0 0 1 23.9243 36.4692)"><tspan x="0" y="0" class="st1 st2 st3">&lt;</tspan><tspan x="11" y="0" class="st0 st2 st3">404</tspan><tspan x="43.9" y="0" class="st1 st2 st3">&gt;</tspan></text>
<g>
	<path class="st1" d="M133.5,57h-52c-4.1,0-7.5-3.4-7.5-7.5v0c0-4.1,3.4-7.5,7.5-7.5h52c4.1,0,7.5,3.4,7.5,7.5v0
		C141,53.6,137.6,57,133.5,57z"/>
</g>
<g>
	<path class="st4" d="M207.5,57h-55c-4.1,0-7.5-3.4-7.5-7.5v0c0-4.1,3.4-7.5,7.5-7.5h55c4.1,0,7.5,3.4,7.5,7.5v0
		C215,53.6,211.6,57,207.5,57z"/>
</g>
<g>
	<path class="st4" d="M90.5,78h-59c-4.1,0-7.5-3.4-7.5-7.5v0c0-4.1,3.4-7.5,7.5-7.5h59c4.1,0,7.5,3.4,7.5,7.5v0
		C98,74.6,94.6,78,90.5,78z"/>
</g>
<g>
	<path class="st0" d="M133.5,78h-22c-4.1,0-7.5-3.4-7.5-7.5v0c0-4.1,3.4-7.5,7.5-7.5h22c4.1,0,7.5,3.4,7.5,7.5v0
		C141,74.6,137.6,78,133.5,78z"/>
</g>
<g>
	<path class="st5" d="M237.5,78h-85c-4.1,0-7.5-3.4-7.5-7.5v0c0-4.1,3.4-7.5,7.5-7.5h85c4.1,0,7.5,3.4,7.5,7.5v0
		C245,74.6,241.6,78,237.5,78z"/>
</g>
<g>
	<path class="st6" d="M108.5,99h-47c-4.1,0-7.5-3.4-7.5-7.5v0c0-4.1,3.4-7.5,7.5-7.5h47c4.1,0,7.5,3.4,7.5,7.5v0
		C116,95.6,112.6,99,108.5,99z"/>
</g>
<g>
	<path class="st1" d="M214.5,99h-86c-4.1,0-7.5-3.4-7.5-7.5v0c0-4.1,3.4-7.5,7.5-7.5h86c4.1,0,7.5,3.4,7.5,7.5v0
		C222,95.6,218.6,99,214.5,99z"/>
</g>
<g>
	<path class="st5" d="M96.5,120h-65c-4.1,0-7.5-3.4-7.5-7.5v0c0-4.1,3.4-7.5,7.5-7.5h65c4.1,0,7.5,3.4,7.5,7.5v0
		C104,116.6,100.6,120,96.5,120z"/>
</g>
<g>
	<path class="st0" d="M152.5,120h-35c-4.1,0-7.5-3.4-7.5-7.5v0c0-4.1,3.4-7.5,7.5-7.5h35c4.1,0,7.5,3.4,7.5,7.5v0
		C160,116.6,156.6,120,152.5,120z"/>
</g>
<g>
	<path class="st4" d="M207.5,120h-35c-4.1,0-7.5-3.4-7.5-7.5v0c0-4.1,3.4-7.5,7.5-7.5h35c4.1,0,7.5,3.4,7.5,7.5v0
		C215,116.6,211.6,120,207.5,120z"/>
</g>
<g>
	<path class="st6" d="M43.5,141h-12c-4.1,0-7.5-3.4-7.5-7.5l0,0c0-4.1,3.4-7.5,7.5-7.5h12c4.1,0,7.5,3.4,7.5,7.5l0,0
		C51,137.6,47.6,141,43.5,141z"/>
</g>
<g>
	<path class="st1" d="M117.5,141h-55c-4.1,0-7.5-3.4-7.5-7.5l0,0c0-4.1,3.4-7.5,7.5-7.5h55c4.1,0,7.5,3.4,7.5,7.5l0,0
		C125,137.6,121.6,141,117.5,141z"/>
</g>
<g>
	<path class="st0" d="M113.5,162h-52c-4.1,0-7.5-3.4-7.5-7.5l0,0c0-4.1,3.4-7.5,7.5-7.5h52c4.1,0,7.5,3.4,7.5,7.5l0,0
		C121,158.6,117.6,162,113.5,162z"/>
</g>
<g>
	<path class="st1" d="M163.5,162h-30c-4.1,0-7.5-3.4-7.5-7.5l0,0c0-4.1,3.4-7.5,7.5-7.5h30c4.1,0,7.5,3.4,7.5,7.5l0,0
		C171,158.6,167.6,162,163.5,162z"/>
</g>
<g>
	<path class="st6" d="M187.5,162h-5c-4.1,0-7.5-3.4-7.5-7.5v0c0-4.1,3.4-7.5,7.5-7.5h5c4.1,0,7.5,3.4,7.5,7.5v0
		C195,158.6,191.6,162,187.5,162z"/>
</g>
<g>
	<path class="st4" d="M123.5,183h-62c-4.1,0-7.5-3.4-7.5-7.5l0,0c0-4.1,3.4-7.5,7.5-7.5h62c4.1,0,7.5,3.4,7.5,7.5l0,0
		C131,179.6,127.6,183,123.5,183z"/>
</g>
<g>
	<path class="st0" d="M163.5,183h-22c-4.1,0-7.5-3.4-7.5-7.5l0,0c0-4.1,3.4-7.5,7.5-7.5h22c4.1,0,7.5,3.4,7.5,7.5l0,0
		C171,179.6,167.6,183,163.5,183z"/>
</g>
<g>
	<path class="st5" d="M214.5,183h-32c-4.1,0-7.5-3.4-7.5-7.5l0,0c0-4.1,3.4-7.5,7.5-7.5h32c4.1,0,7.5,3.4,7.5,7.5l0,0
		C222,179.6,218.6,183,214.5,183z"/>
</g>
<text transform="matrix(1 0 0 1 23.9243 203.4692)"><tspan x="0" y="0" class="st6 st2 st3">notFound</tspan><tspan x="89.7" y="0" class="st1 st2 st3">();</tspan></text>
<text transform="matrix(1 0 0 1 23.9243 224.4692)"><tspan x="0" y="0" class="st1 st2 st3">&lt;</tspan><tspan x="11" y="0" class="st0 st2 st3">/404</tspan><tspan x="51.1" y="0" class="st1 st2 st3">&gt;</tspan></text>
</svg>
