<svg id="Layer_1" data-name="Layer 1" xmlns="http://www.w3.org/2000/svg" xmlns:xlink="http://www.w3.org/1999/xlink" viewBox="0 0 24 16"><defs><style>.cls-1{fill:url(#linear-gradient);}.cls-2{fill:#2d325a;}</style><linearGradient id="linear-gradient" x1="12" y1="20" x2="12" y2="4" gradientUnits="userSpaceOnUse"><stop offset="0.15" stop-color="#0a0e29"/><stop offset="0.52" stop-color="#dbb13b"/><stop offset="0.85" stop-color="#2d325a"/></linearGradient></defs><title>semester6</title><path class="cls-1" d="M22,17V5.2A1.2,1.2,0,0,0,20.8,4H3.2A1.2,1.2,0,0,0,2,5.2V17ZM4,6H20v9H4ZM24,18v.8A1.2,1.2,0,0,1,22.8,20H1.2A1.2,1.2,0,0,1,0,18.8V18H10a.5.5,0,0,0,.5.5h3A.5.5,0,0,0,14,18Z" transform="translate(0 -4)"/><path class="cls-2" d="M10.19,10.44a4.46,4.46,0,0,1,.1-1,3.38,3.38,0,0,1,.25-.76,2.31,2.31,0,0,1,.38-.53,1.93,1.93,0,0,1,.44-.35,2.13,2.13,0,0,1,.46-.2,3.21,3.21,0,0,1,.43-.1l.37,0a3.15,3.15,0,0,1,.78.09v.54A3.11,3.11,0,0,0,12.71,8h0l-.36,0a2.31,2.31,0,0,0-.45.13,1.42,1.42,0,0,0-.47.29A1.51,1.51,0,0,0,11,9a2.46,2.46,0,0,0-.23.83A2.08,2.08,0,0,1,12,9.46a1.83,1.83,0,0,1,1.32.46,1.58,1.58,0,0,1,.49,1.23,2,2,0,0,1-.4,1.21,1.48,1.48,0,0,1-.57.43A2.17,2.17,0,0,1,12,13C10.79,13,10.19,12.11,10.19,10.44Zm.58,0a3.62,3.62,0,0,0,.11.94,1.85,1.85,0,0,0,.22.58.84.84,0,0,0,.32.3,1.05,1.05,0,0,0,.31.11H12a1.54,1.54,0,0,0,.67-.14.84.84,0,0,0,.38-.39,1.44,1.44,0,0,0,.15-.4,1.93,1.93,0,0,0,0-.33,1.1,1.1,0,0,0-.31-.84A1.3,1.3,0,0,0,12,10,1.67,1.67,0,0,0,10.77,10.46Z" transform="translate(0 -4)"/></svg>