<svg id="Layer_1" data-name="Layer 1" xmlns="http://www.w3.org/2000/svg" xmlns:xlink="http://www.w3.org/1999/xlink" viewBox="0 0 24 16"><defs><style>.cls-1{fill:url(#linear-gradient);}.cls-2{fill:#2d325a;}</style><linearGradient id="linear-gradient" x1="12" y1="20" x2="12" y2="4" gradientUnits="userSpaceOnUse"><stop offset="0.15" stop-color="#0a0e29"/><stop offset="0.52" stop-color="#dbb13b"/><stop offset="0.85" stop-color="#2d325a"/></linearGradient></defs><title>semester8</title><path class="cls-1" d="M22,17V5.2A1.2,1.2,0,0,0,20.8,4H3.2A1.2,1.2,0,0,0,2,5.2V17ZM4,6H20v9H4ZM24,18v.8A1.2,1.2,0,0,1,22.8,20H1.2A1.2,1.2,0,0,1,0,18.8V18H10a.5.5,0,0,0,.5.5h3A.5.5,0,0,0,14,18Z" transform="translate(0 -4)"/><path class="cls-2" d="M10.16,11.3a1.3,1.3,0,0,1,.72-1.2l.2-.09L11,10a.67.67,0,0,1-.17-.12,1.1,1.1,0,0,1-.22-.21,1.26,1.26,0,0,1-.17-.33,1.32,1.32,0,0,1,.33-1.41A1.64,1.64,0,0,1,12,7.48a1.71,1.71,0,0,1,1.25.4,1.32,1.32,0,0,1,.4,1,1.15,1.15,0,0,1-.58,1.07L13,10l.1,0,.21.14a1.55,1.55,0,0,1,.27.24,1.57,1.57,0,0,1,.22.37,1.44,1.44,0,0,1,.09.51,1.69,1.69,0,0,1-.41,1.11,1.48,1.48,0,0,1-.58.39A2.28,2.28,0,0,1,12,13a1.8,1.8,0,0,1-1.39-.5A1.62,1.62,0,0,1,10.16,11.3Zm.58,0a1.8,1.8,0,0,0,0,.22,1.05,1.05,0,0,0,.09.27.93.93,0,0,0,.2.3,1,1,0,0,0,.38.22,1.91,1.91,0,0,0,1.16,0,.91.91,0,0,0,.38-.22.69.69,0,0,0,.2-.3,1.91,1.91,0,0,0,.1-.27,1.7,1.7,0,0,0,0-.22.9.9,0,0,0-.32-.74,1.54,1.54,0,0,0-1-.25,1.48,1.48,0,0,0-.94.26A.86.86,0,0,0,10.74,11.3Zm.2-2.44a.84.84,0,0,0,.28.68,1.18,1.18,0,0,0,.79.24,1.18,1.18,0,0,0,.79-.24.85.85,0,0,0,.28-.68c0-.55-.35-.82-1.07-.82S10.94,8.31,10.94,8.86Z" transform="translate(0 -4)"/></svg>