<?xml version="1.0" encoding="utf-8"?>
<!-- Generator: Adobe Illustrator 22.0.0, SVG Export Plug-In . SVG Version: 6.00 Build 0)  -->
<svg version="1.1" id="Layer_1" xmlns="http://www.w3.org/2000/svg" xmlns:xlink="http://www.w3.org/1999/xlink" x="0px" y="0px"
	 viewBox="0 0 250 250" style="enable-background:new 0 0 250 250;" xml:space="preserve">
<style type="text/css">
	.st0{fill:#183F9C;}
	.st1{fill:#DBB13B;}
	.st2{fill:#2DC7FF;}
</style>
<path class="st0" d="M69.8,23.6H8c-2.4,0-4.4-2-4.4-4.4v0c0-2.4,2-4.4,4.4-4.4h61.8c2.4,0,4.4,2,4.4,4.4v0
	C74.2,21.6,72.2,23.6,69.8,23.6z"/>
<path class="st1" d="M78.2,241.9H16.4c-2.4,0-4.4-2-4.4-4.4v0c0-2.4,2-4.4,4.4-4.4h61.8c2.4,0,4.4,2,4.4,4.4v0
	C82.6,239.9,80.6,241.9,78.2,241.9z"/>
<path class="st2" d="M235.9,46.2h-71.8c-2.4,0-4.4-2-4.4-4.4v0c0-2.4,2-4.4,4.4-4.4h71.8c2.4,0,4.4,2,4.4,4.4v0
	C240.3,44.2,238.3,46.2,235.9,46.2z"/>
<path class="st1" d="M235.6,113.9h-31.1c-2.4,0-4.4-2-4.4-4.4v0c0-2.4,2-4.4,4.4-4.4h31.1c2.4,0,4.4,2,4.4,4.4v0
	C240,111.9,238,113.9,235.6,113.9z"/>
<path class="st0" d="M105.1,230H43.4c-2.4,0-4.4-2-4.4-4.4v0c0-2.4,2-4.4,4.4-4.4h61.8c2.4,0,4.4,2,4.4,4.4v0
	C109.6,228,107.6,230,105.1,230z"/>
<path class="st0" d="M237.3,212.7h-61.8c-2.4,0-4.4-2-4.4-4.4v0c0-2.4,2-4.4,4.4-4.4h61.8c2.4,0,4.4,2,4.4,4.4v0
	C241.7,210.7,239.7,212.7,237.3,212.7z"/>
<path class="st2" d="M65.1,37.3H28c-2.4,0-4.4-2-4.4-4.4v0c0-2.4,2-4.4,4.4-4.4h37.1c2.4,0,4.4,2,4.4,4.4v0
	C69.6,35.3,67.6,37.3,65.1,37.3z"/>
<path class="st2" d="M42.1,155.1H21c-2.4,0-4.4-2-4.4-4.4v0c0-2.4,2-4.4,4.4-4.4h21.1c2.4,0,4.4,2,4.4,4.4v0
	C46.6,153.1,44.6,155.1,42.1,155.1z"/>
<path class="st1" d="M55.1,143.9H8c-2.4,0-4.4-2-4.4-4.4v0c0-2.4,2-4.4,4.4-4.4h47.1c2.4,0,4.4,2,4.4,4.4v0
	C59.6,141.9,57.6,143.9,55.1,143.9z"/>
<path class="st1" d="M203.8,33.5h-31.1c-2.4,0-4.4-2-4.4-4.4v0c0-2.4,2-4.4,4.4-4.4h31.1c2.4,0,4.4,2,4.4,4.4v0
	C208.2,31.5,206.2,33.5,203.8,33.5z"/>
<path class="st2" d="M138.5,244.8H97.3c-2.4,0-4.4-2-4.4-4.4v0c0-2.4,2-4.4,4.4-4.4h41.1c2.4,0,4.4,2,4.4,4.4v0
	C142.9,242.8,140.9,244.8,138.5,244.8z"/>
<path class="st1" d="M239.6,223.6h-11.1c-2.4,0-4.4-2-4.4-4.4v0c0-2.4,2-4.4,4.4-4.4h11.1c2.4,0,4.4,2,4.4,4.4v0
	C244,221.6,242,223.6,239.6,223.6z"/>
</svg>
