<svg id="Layer_1" data-name="Layer 1" xmlns="http://www.w3.org/2000/svg" xmlns:xlink="http://www.w3.org/1999/xlink" viewBox="0 0 137.44 24.73"><defs><style>.cls-1{fill:url(#linear-gradient);}.cls-2{fill:url(#linear-gradient-2);}.cls-3{fill:#0a0e29;}</style><linearGradient id="linear-gradient" x1="2.89" y1="19.47" x2="21.74" y2="4.61" gradientUnits="userSpaceOnUse"><stop offset="0" stop-color="#0a0e29"/><stop offset="0.65" stop-color="#2dc7ff"/></linearGradient><linearGradient id="linear-gradient-2" x1="17.22" y1="7.76" x2="26.73" y2="-1.76" gradientUnits="userSpaceOnUse"><stop offset="0" stop-color="#183f9c"/><stop offset="0.75" stop-color="#2dc7ff"/></linearGradient></defs><title>logo</title><path class="cls-1" d="M23,5V18.88L22,19V3c-3.9.12-7.51.76-10,2.32C9.5,3.76,5.9,3.12,2,3V19l-1-.12V5H0V20H9.06c1.48,0,1.64,1,2.94,1s1.46-1,2.94-1H24V5ZM11,18.65a23.15,23.15,0,0,0-7-1.49v-12A16.24,16.24,0,0,1,11,7Zm9-1.49a23.15,23.15,0,0,0-7,1.49V7a16.24,16.24,0,0,1,7-1.92Z" transform="translate(0 3.73)"/><path class="cls-2" d="M22-3.73A6.73,6.73,0,1,0,28.7,3,6.73,6.73,0,0,0,22-3.73ZM24.22.2a.56.56,0,1,1-.56.56A.56.56,0,0,1,24.22.2ZM22-.92a.56.56,0,0,1,.56.56A.56.56,0,0,1,22,.2a.56.56,0,0,1-.56-.56A.56.56,0,0,1,22-.92ZM19.73.2a.56.56,0,1,1-.56.56A.56.56,0,0,1,19.73.2ZM18.61,3.56A.56.56,0,1,1,19.17,3,.56.56,0,0,1,18.61,3.56ZM19.73,5.8a.56.56,0,1,1,.56-.56A.56.56,0,0,1,19.73,5.8ZM22,6.92a.56.56,0,1,1,.56-.56A.56.56,0,0,1,22,6.92Zm0-2.24A1.68,1.68,0,1,1,23.66,3,1.69,1.69,0,0,1,22,4.68ZM24.22,5.8a.56.56,0,1,1,.56-.56A.56.56,0,0,1,24.22,5.8Zm1.12-2.24A.56.56,0,1,1,25.9,3,.56.56,0,0,1,25.34,3.56Z" transform="translate(0 3.73)"/><path class="cls-3" d="M36.59,19.69A6.6,6.6,0,0,1,35,18.57h-.07L34.7,19.8H32.78v-17H35.2V7.29l-.07,2a7.2,7.2,0,0,1,1.73-1.12,4.22,4.22,0,0,1,1.8-.42,4,4,0,0,1,3.42,1.61,7.1,7.1,0,0,1,1.21,4.34,7.63,7.63,0,0,1-.7,3.39,5.47,5.47,0,0,1-1.84,2.21,4.45,4.45,0,0,1-2.5.76A3.91,3.91,0,0,1,36.59,19.69ZM40,16.93a5.23,5.23,0,0,0,.84-3.16q0-4-2.78-4a4.22,4.22,0,0,0-2.81,1.44V17a4.53,4.53,0,0,0,1.31.81,3.33,3.33,0,0,0,1.26.27A2.58,2.58,0,0,0,40,16.93Z" transform="translate(0 3.73)"/><path class="cls-3" d="M48.16,19.34a5.44,5.44,0,0,1-2-2.14,6.74,6.74,0,0,1-.75-3.26,6.86,6.86,0,0,1,.75-3.29,5.4,5.4,0,0,1,2-2.13,5.4,5.4,0,0,1,5.49,0,5.33,5.33,0,0,1,2,2.13,6.75,6.75,0,0,1,.76,3.29,6.63,6.63,0,0,1-.76,3.26,5.38,5.38,0,0,1-2,2.14,5.42,5.42,0,0,1-5.47,0ZM53.1,17a5,5,0,0,0,.82-3,5,5,0,0,0-.83-3,2.66,2.66,0,0,0-4.39,0,5,5,0,0,0-.83,3,5,5,0,0,0,.82,3,2.7,2.7,0,0,0,4.41,0Z" transform="translate(0 3.73)"/><path class="cls-3" d="M61.26,19.34a5.42,5.42,0,0,1-2-2.14,6.63,6.63,0,0,1-.76-3.26,6.75,6.75,0,0,1,.76-3.29,5.37,5.37,0,0,1,9.52,0,6.75,6.75,0,0,1,.76,3.29,6.63,6.63,0,0,1-.76,3.26,5.42,5.42,0,0,1-2,2.14,5.44,5.44,0,0,1-5.48,0ZM66.21,17a5.08,5.08,0,0,0,.81-3,5,5,0,0,0-.82-3,2.67,2.67,0,0,0-4.4,0,5,5,0,0,0-.82,3,5.08,5.08,0,0,0,.81,3,2.71,2.71,0,0,0,4.42,0Z" transform="translate(0 3.73)"/><path class="cls-3" d="M72.62,4.08h2.44v7.46h.08l6-7.46h2.73L79,10.15l5.66,9.65H82l-4.44-7.73-2.45,3V19.8H72.62Z" transform="translate(0 3.73)"/><path class="cls-3" d="M95.51,14.56H87.76A3.93,3.93,0,0,0,89,17.26a3.68,3.68,0,0,0,2.53.93,5.19,5.19,0,0,0,2.81-.89l.84,1.54a7,7,0,0,1-4,1.24,5.66,5.66,0,0,1-2.9-.74,5.29,5.29,0,0,1-2.05-2.14,6.63,6.63,0,0,1-.76-3.26,6.67,6.67,0,0,1,.76-3.25,5.46,5.46,0,0,1,2-2.16,4.81,4.81,0,0,1,2.61-.76,4.33,4.33,0,0,1,3.53,1.5,6.15,6.15,0,0,1,1.25,4.05A6.92,6.92,0,0,1,95.51,14.56Zm-2-1.68a3.7,3.7,0,0,0-.68-2.37,2.32,2.32,0,0,0-1.94-.84,2.8,2.8,0,0,0-2,.81,4.08,4.08,0,0,0-1.1,2.4Z" transform="translate(0 3.73)"/><path class="cls-3" d="M99.18,19.63a7.81,7.81,0,0,1-2.06-1.18l1.15-1.56a8.15,8.15,0,0,0,1.63,1,4.25,4.25,0,0,0,1.71.35,2.29,2.29,0,0,0,1.53-.45,1.38,1.38,0,0,0,.53-1.14,1.28,1.28,0,0,0-.65-1.14,10.35,10.35,0,0,0-1.94-.9,8.47,8.47,0,0,1-2.47-1.33,2.55,2.55,0,0,1-.91-2.08,3.1,3.1,0,0,1,1.12-2.47,4.57,4.57,0,0,1,3.05-1,6,6,0,0,1,3.79,1.37l-1.12,1.51a6.69,6.69,0,0,0-1.3-.77,3.49,3.49,0,0,0-1.32-.26,2.21,2.21,0,0,0-1.43.41,1.29,1.29,0,0,0-.49,1.05,1.07,1.07,0,0,0,.34.81,2.45,2.45,0,0,0,.78.51c.29.13.76.32,1.4.56a11,11,0,0,1,1.76.78,3.59,3.59,0,0,1,1.2,1.06,2.82,2.82,0,0,1,.5,1.71,3.33,3.33,0,0,1-.52,1.81,3.52,3.52,0,0,1-1.52,1.28,5.59,5.59,0,0,1-2.4.48A6.58,6.58,0,0,1,99.18,19.63Z" transform="translate(0 3.73)"/><path class="cls-3" d="M108.57,8.06h2l.19,1.63h.07a8.55,8.55,0,0,1,1.74-1.4,3.64,3.64,0,0,1,1.89-.52,3.16,3.16,0,0,1,3.24,2.16,9.35,9.35,0,0,1,1.88-1.61,3.72,3.72,0,0,1,1.93-.55A3.18,3.18,0,0,1,124.2,9a5.62,5.62,0,0,1,.9,3.44v7.4h-2.42V12.72a4,4,0,0,0-.47-2.19,1.69,1.69,0,0,0-1.5-.67,4,4,0,0,0-2.66,1.61V19.8h-2.43V12.72a4,4,0,0,0-.46-2.19,1.71,1.71,0,0,0-1.5-.67A4,4,0,0,0,111,11.47V19.8h-2.42Z" transform="translate(0 3.73)"/><path class="cls-3" d="M128.94,19.16a3.28,3.28,0,0,1-1-2.48,3.23,3.23,0,0,1,1.68-2.92A13.67,13.67,0,0,1,135,12.33c0-1.73-.79-2.59-2.26-2.59a6.51,6.51,0,0,0-3.38,1.2l-.92-1.63a8.71,8.71,0,0,1,4.73-1.54,3.87,3.87,0,0,1,3.19,1.29,5.61,5.61,0,0,1,1.06,3.68V19.8h-2l-.19-1.35h-.08a5.89,5.89,0,0,1-3.74,1.63A3.45,3.45,0,0,1,128.94,19.16Zm4.64-1.33A7.46,7.46,0,0,0,135,16.77v-2.9a9.85,9.85,0,0,0-3.62,1,1.91,1.91,0,0,0-1.06,1.68,1.5,1.5,0,0,0,.5,1.23,2,2,0,0,0,1.34.42A3.07,3.07,0,0,0,133.58,17.83Z" transform="translate(0 3.73)"/></svg>