<svg id="Layer_1" data-name="Layer 1" xmlns="http://www.w3.org/2000/svg" xmlns:xlink="http://www.w3.org/1999/xlink" viewBox="0 0 24 16"><defs><style>.cls-1{fill:url(#linear-gradient);}.cls-2{fill:#2d325a;}</style><linearGradient id="linear-gradient" x1="12" y1="20" x2="12" y2="4" gradientUnits="userSpaceOnUse"><stop offset="0.15" stop-color="#0a0e29"/><stop offset="0.52" stop-color="#dbb13b"/><stop offset="0.85" stop-color="#2d325a"/></linearGradient></defs><title>semester2</title><path class="cls-1" d="M22,17V5.2A1.2,1.2,0,0,0,20.8,4H3.2A1.2,1.2,0,0,0,2,5.2V17ZM4,6H20v9H4ZM24,18v.8A1.2,1.2,0,0,1,22.8,20H1.2A1.2,1.2,0,0,1,0,18.8V18H10a.5.5,0,0,0,.5.5h3A.5.5,0,0,0,14,18Z" transform="translate(0 -4)"/><path class="cls-2" d="M10.3,12.88v-.5q.39-.3.81-.66a11.15,11.15,0,0,0,.87-.84,5,5,0,0,0,.74-1A2,2,0,0,0,13,9q0-.93-1.26-.93a2.38,2.38,0,0,0-1.4.47V7.88a2.76,2.76,0,0,1,1.45-.4,1.83,1.83,0,0,1,1.35.44A1.45,1.45,0,0,1,13.58,9a2.26,2.26,0,0,1-.21.91,4.26,4.26,0,0,1-.6.92,9.91,9.91,0,0,1-.74.81c-.24.23-.51.47-.78.69h2.41v.57Z" transform="translate(0 -4)"/></svg>