<svg id="Layer_1" data-name="Layer 1" xmlns="http://www.w3.org/2000/svg" xmlns:xlink="http://www.w3.org/1999/xlink" viewBox="0 0 139.07 29.93"><defs><style>.cls-1{fill:url(#linear-gradient);}.cls-2{fill:url(#linear-gradient-2);}.cls-3{font-size:24px;fill:#0a0e29;font-family:Assistant-SemiBold, Assistant;font-weight:700;}.cls-4{letter-spacing:-0.01em;}</style><linearGradient id="linear-gradient" x1="2.89" y1="19.47" x2="21.74" y2="4.61" gradientUnits="userSpaceOnUse"><stop offset="0" stop-color="#0a0e29"/><stop offset="0.65" stop-color="#2dc7ff"/></linearGradient><linearGradient id="linear-gradient-2" x1="17.22" y1="7.76" x2="26.73" y2="-1.76" gradientUnits="userSpaceOnUse"><stop offset="0" stop-color="#183f9c"/><stop offset="0.75" stop-color="#2dc7ff"/></linearGradient></defs><title>logo</title><path class="cls-1" d="M23,5V18.88L22,19V3c-3.9.12-7.51.76-10,2.32C9.5,3.76,5.9,3.12,2,3V19l-1-.12V5H0V20H9.06c1.48,0,1.64,1,2.94,1s1.46-1,2.94-1H24V5ZM11,18.65a23.15,23.15,0,0,0-7-1.49v-12A16.24,16.24,0,0,1,11,7Zm9-1.49a23.15,23.15,0,0,0-7,1.49V7a16.24,16.24,0,0,1,7-1.92Z" transform="translate(0 3.73)"/><path class="cls-2" d="M22-3.73A6.73,6.73,0,1,0,28.7,3,6.73,6.73,0,0,0,22-3.73ZM24.22.2a.56.56,0,1,1-.56.56A.56.56,0,0,1,24.22.2ZM22-.92a.56.56,0,0,1,.56.56A.56.56,0,0,1,22,.2a.56.56,0,0,1-.56-.56A.56.56,0,0,1,22-.92ZM19.73.2a.56.56,0,1,1-.56.56A.56.56,0,0,1,19.73.2ZM18.61,3.56A.56.56,0,1,1,19.17,3,.56.56,0,0,1,18.61,3.56ZM19.73,5.8a.56.56,0,1,1,.56-.56A.56.56,0,0,1,19.73,5.8ZM22,6.92a.56.56,0,1,1,.56-.56A.56.56,0,0,1,22,6.92Zm0-2.24A1.68,1.68,0,1,1,23.66,3,1.69,1.69,0,0,1,22,4.68ZM24.22,5.8a.56.56,0,1,1,.56-.56A.56.56,0,0,1,24.22,5.8Zm1.12-2.24A.56.56,0,1,1,25.9,3,.56.56,0,0,1,25.34,3.56Z" transform="translate(0 3.73)"/><text class="cls-3" transform="translate(30.93 23.52)">boo<tspan class="cls-4" x="39.62" y="0">K</tspan><tspan x="53.52" y="0">esma</tspan></text></svg>