<svg id="Layer_1" data-name="Layer 1" xmlns="http://www.w3.org/2000/svg" xmlns:xlink="http://www.w3.org/1999/xlink" viewBox="0 0 24 16"><defs><style>.cls-1{fill:url(#linear-gradient);}.cls-2{fill:#2d325a;}</style><linearGradient id="linear-gradient" x1="12" y1="20" x2="12" y2="4" gradientUnits="userSpaceOnUse"><stop offset="0.15" stop-color="#0a0e29"/><stop offset="0.52" stop-color="#dbb13b"/><stop offset="0.85" stop-color="#2d325a"/></linearGradient></defs><title>semester5</title><path class="cls-1" d="M22,17V5.2A1.2,1.2,0,0,0,20.8,4H3.2A1.2,1.2,0,0,0,2,5.2V17ZM4,6H20v9H4ZM24,18v.8A1.2,1.2,0,0,1,22.8,20H1.2A1.2,1.2,0,0,1,0,18.8V18H10a.5.5,0,0,0,.5.5h3A.5.5,0,0,0,14,18Z" transform="translate(0 -4)"/><path class="cls-2" d="M10.35,10l.27-2.46h2.75v.56H11.11L11,9.7a3.49,3.49,0,0,1,1-.14,2.27,2.27,0,0,1,.61.07,1.71,1.71,0,0,1,.53.25,1.11,1.11,0,0,1,.42.52,2.19,2.19,0,0,1,.15.85,2,2,0,0,1-.16.85,1.24,1.24,0,0,1-.41.53,1.87,1.87,0,0,1-.54.25A2.74,2.74,0,0,1,12,13a3.14,3.14,0,0,1-1.52-.33V12a2.7,2.7,0,0,0,1.49.37,1.69,1.69,0,0,0,.53-.08,1,1,0,0,0,.35-.18.77.77,0,0,0,.19-.27,1.35,1.35,0,0,0,.08-.3,2.91,2.91,0,0,0,0-.31,1.63,1.63,0,0,0-.09-.59.72.72,0,0,0-.28-.35,1.12,1.12,0,0,0-.37-.14,1.8,1.8,0,0,0-.43,0,3.69,3.69,0,0,0-.69.06,1.74,1.74,0,0,0-.44.14l-.13.05Z" transform="translate(0 -4)"/></svg>