<svg id="Layer_1" data-name="Layer 1" xmlns="http://www.w3.org/2000/svg" xmlns:xlink="http://www.w3.org/1999/xlink" viewBox="0 0 24 16"><defs><style>.cls-1{fill:url(#linear-gradient);}.cls-2{fill:#2d325a;}</style><linearGradient id="linear-gradient" x1="12" y1="20" x2="12" y2="4" gradientUnits="userSpaceOnUse"><stop offset="0.15" stop-color="#0a0e29"/><stop offset="0.52" stop-color="#dbb13b"/><stop offset="0.85" stop-color="#2d325a"/></linearGradient></defs><title>semester4</title><path class="cls-1" d="M22,17V5.2A1.2,1.2,0,0,0,20.8,4H3.2A1.2,1.2,0,0,0,2,5.2V17ZM4,6H20v9H4ZM24,18v.8A1.2,1.2,0,0,1,22.8,20H1.2A1.2,1.2,0,0,1,0,18.8V18H10a.5.5,0,0,0,.5.5h3A.5.5,0,0,0,14,18Z" transform="translate(0 -4)"/><path class="cls-2" d="M9.94,11.29v-.62l2.52-3.12h.65v3.2h.76v.54h-.76v1.59h-.58V11.29Zm.64-.54h1.95V8.37Z" transform="translate(0 -4)"/></svg>